<svg width="1246" height="337" viewBox="0 0 1246 337" fill="none" xmlns="http://www.w3.org/2000/svg">
<path d="M10 325.958C62.5373 325.958 121.32 330.684 171.469 320.006C211.263 311.533 247.731 300.191 283.727 286.785C315.419 274.981 346.928 264.06 379.429 253.079C435.422 234.16 505.825 222.557 569.7 222.557C589.924 222.557 613.854 220.233 632.859 225.117C654.673 230.724 673.076 238.512 693.523 245.673C698.718 247.492 734.779 257.312 724.366 263.668C714.68 269.58 703.753 267.209 692.729 263.668C678.629 259.138 677.422 250.985 677.422 241.936C677.422 230.353 688.012 216.244 701.914 208.23C713.356 201.634 721.927 193.071 732.303 185.874C746.386 176.106 761.925 167.22 775.392 157.083C792.544 144.17 809.06 131.136 825.397 117.84C839.889 106.046 858.897 90.4092 862.703 75.4132C865.713 63.5554 862.686 44.2302 856.244 32.076C851.114 22.3988 835.984 11.089 825.042 10.6034V10.6034C822.005 10.4686 818.606 11.3129 816.706 13.6861C815.457 15.2468 814.071 17.3789 812.684 19.7727C807.162 29.3016 808.724 40.9746 814.275 50.4866C820.867 61.7815 823.441 66.4693 836 75.4128C890.785 114.425 981.149 121.551 1062.5 131.059C1174.34 144.131 1233.5 139.499 1236 139.499" stroke="#FDDA02" stroke-width="20" stroke-linecap="square"/>
</svg>
