<svg width="16" height="16" viewBox="0 0 16 16" fill="none" xmlns="http://www.w3.org/2000/svg">
<g opacity="0.9">
<circle cx="8" cy="8" r="8" fill="#31BF2A"/>
<path d="M7.5 12C7.5 12.2761 7.72386 12.5 8 12.5C8.27614 12.5 8.5 12.2761 8.5 12H7.5ZM8.35355 3.64645C8.15829 3.45118 7.84171 3.45118 7.64645 3.64645L4.46447 6.82843C4.2692 7.02369 4.2692 7.34027 4.46447 7.53553C4.65973 7.7308 4.97631 7.7308 5.17157 7.53553L8 4.70711L10.8284 7.53553C11.0237 7.7308 11.3403 7.7308 11.5355 7.53553C11.7308 7.34027 11.7308 7.02369 11.5355 6.82843L8.35355 3.64645ZM8.5 12L8.5 4H7.5L7.5 12H8.5Z" fill="white"/>
</g>
</svg>
