<svg width="16" height="16" viewBox="0 0 16 16" fill="none" xmlns="http://www.w3.org/2000/svg">
<g opacity="0.9">
<circle cx="8" cy="8" r="8" fill="#AF1D1D"/>
<path d="M8.5 4C8.5 3.72386 8.27614 3.5 8 3.5C7.72386 3.5 7.5 3.72386 7.5 4H8.5ZM7.64645 12.3536C7.84171 12.5488 8.15829 12.5488 8.35355 12.3536L11.5355 9.17157C11.7308 8.97631 11.7308 8.65973 11.5355 8.46447C11.3403 8.2692 11.0237 8.2692 10.8284 8.46447L8 11.2929L5.17157 8.46447C4.97631 8.2692 4.65973 8.2692 4.46447 8.46447C4.2692 8.65973 4.2692 8.97631 4.46447 9.17157L7.64645 12.3536ZM7.5 4L7.5 12H8.5L8.5 4H7.5Z" fill="white"/>
</g>
</svg>
