<?xml version="1.0" encoding="UTF-8"?>
<svg id="LOGO_INFO" xmlns="http://www.w3.org/2000/svg" width="2.96in" height="1.77in" viewBox="0 0 213.21 127.46">
  <g>
    <path d="M92.09,57.34h-2.9c-.39,0-.7.31-.7.7v7.15c0,.71-.19,1.27-.56,1.67-.37.4-.88.6-1.51.6-.45,0-.83-.09-1.15-.28-.32-.19-.56-.45-.71-.79-.16-.34-.24-.74-.24-1.21v-7.15c0-.39-.31-.7-.7-.7h-2.9c-.39,0-.7.31-.7.7v7.21c0,1.18.27,2.22.81,3.13.54.91,1.29,1.62,2.26,2.13.96.51,2.07.77,3.32.77s2.36-.26,3.31-.77c.95-.51,1.7-1.22,2.24-2.13.54-.91.81-1.96.81-3.15v-7.18c0-.39-.31-.7-.7-.7Z" style="fill: #000; stroke-width: 0px;"/>
    <path d="M105.14,57.77c-.78-.48-1.67-.71-2.68-.71s-1.99.22-2.82.66c-.37.2-.7.43-1,.7v-.38c0-.39-.31-.7-.7-.7h-2.9c-.39,0-.7.31-.7.7v12.23c0,.39.31.7.7.7h2.9c.39,0,.7-.31.7-.7v-7.07c0-.47.1-.88.31-1.25.21-.36.49-.65.84-.84s.77-.29,1.23-.29c.67,0,1.23.22,1.67.66.44.44.66,1.01.66,1.72v7.07c0,.39.31.7.7.7h2.9c.39,0,.7-.31.7-.7v-8.02c0-.94-.22-1.8-.67-2.58-.45-.79-1.06-1.42-1.84-1.89Z" style="fill: #000; stroke-width: 0px;"/>
    <rect x="109.27" y="57.34" width="4.29" height="13.63" rx=".7" ry=".7" style="fill: #000; stroke-width: 0px;"/>
    <path d="M111.43,50.75c-.67,0-1.23.22-1.67.67-.44.45-.66,1.01-.66,1.68s.22,1.21.66,1.67c.44.46.99.69,1.67.69s1.22-.23,1.65-.69c.43-.46.64-1.01.64-1.67s-.22-1.23-.64-1.68c-.43-.45-.98-.67-1.65-.67Z" style="fill: #000; stroke-width: 0px;"/>
    <path d="M125.22,66.73c-.25-.25-.64-.27-.92-.06-.21.16-.44.3-.68.41-.44.2-.94.29-1.5.29-.6,0-1.14-.14-1.63-.42-.49-.28-.86-.66-1.14-1.15-.27-.49-.41-1.05-.41-1.68s.14-1.19.41-1.67c.27-.48.65-.85,1.12-1.12.48-.27,1.02-.41,1.64-.41.54,0,1.02.08,1.44.25.24.09.46.22.66.37.28.21.67.19.91-.06l1.77-1.77c.29-.29.28-.76-.03-1.02-.56-.48-1.17-.85-1.83-1.13-.89-.36-1.86-.55-2.93-.55-1.42,0-2.7.31-3.84.93-1.14.62-2.04,1.46-2.71,2.54-.66,1.08-1,2.3-1,3.66s.33,2.56.98,3.65c.65,1.08,1.55,1.93,2.69,2.55,1.14.62,2.41.93,3.81.93,1.1,0,2.1-.19,3-.57.68-.29,1.31-.69,1.89-1.19.3-.26.31-.73.03-1.01l-1.75-1.77Z" style="fill: #000; stroke-width: 0px;"/>
    <path d="M154.77,57.98c-1-.62-2.15-.93-3.44-.93-.92,0-1.76.19-2.52.56-.38.19-.73.41-1.04.66v-.24c0-.39-.31-.7-.7-.7h-2.9c-.39,0-.7.31-.7.7v17.98c0,.39.31.7.7.7h2.84c.39,0,.7-.31.7-.7v-5.98c.33.26.69.49,1.09.68.77.36,1.61.53,2.52.53,1.29,0,2.44-.31,3.44-.93,1-.62,1.78-1.46,2.36-2.52.57-1.07.86-2.28.86-3.65s-.29-2.58-.86-3.65c-.57-1.07-1.36-1.91-2.36-2.52ZM153.24,65.8c-.26.49-.62.87-1.08,1.15-.46.28-1,.42-1.61.42-.58,0-1.1-.14-1.57-.42-.47-.28-.83-.66-1.08-1.15-.25-.49-.38-1.04-.38-1.65s.13-1.2.39-1.68c.26-.49.62-.86,1.08-1.14.46-.27.99-.41,1.58-.41s1.13.14,1.58.41c.46.27.82.65,1.08,1.14.26.49.39,1.05.39,1.68s-.13,1.17-.39,1.65Z" style="fill: #000; stroke-width: 0px;"/>
    <path d="M170.33,57.98c-1-.62-2.15-.93-3.44-.93-.92,0-1.76.19-2.52.56-.38.19-.73.41-1.04.66v-.24c0-.39-.31-.7-.7-.7h-2.9c-.39,0-.7.31-.7.7v17.98c0,.39.31.7.7.7h2.84c.39,0,.7-.31.7-.7v-5.98c.33.26.69.49,1.09.68.77.36,1.61.53,2.52.53,1.29,0,2.44-.31,3.44-.93,1-.62,1.78-1.46,2.36-2.52.57-1.07.86-2.28.86-3.65s-.29-2.58-.86-3.65c-.57-1.07-1.36-1.91-2.36-2.52ZM168.81,65.8c-.26.49-.62.87-1.08,1.15-.46.28-1,.42-1.61.42-.58,0-1.1-.14-1.57-.42-.47-.28-.83-.66-1.08-1.15-.25-.49-.38-1.04-.38-1.65s.13-1.2.39-1.68c.26-.49.62-.86,1.08-1.14.46-.27.99-.41,1.58-.41s1.13.14,1.58.41c.46.27.82.65,1.08,1.14.26.49.39,1.05.39,1.68s-.13,1.17-.39,1.65Z" style="fill: #000; stroke-width: 0px;"/>
    <path d="M140.2,62.23c-.24-1.83-1.22-3.35-2.78-4.3-2.54-1.54-6.16-1.43-8.74.2-.36.22-.44.7-.18,1.03l1.16,1.47c.21.27.59.34.89.17,1.53-.88,3.77-.95,5.19-.09.58.35.96.83,1.14,1.45l-1.53-.12c-2.11-.16-4.2.49-5.61,1.75-1.5,1.34-2.28,3.87-1,5.8.79,1.17,2.23,1.87,3.81,1.87.24,0,.48-.02.73-.05,1.64-.22,3.27-1.1,4.6-2.48.24-.25.46-.51.67-.79.22.65.34,1.36.35,2.06,0,.35.28.64.63.67l1.86.16c.41.04.76-.27.76-.68.02-2.2-.7-4.39-1.99-5.96.12-.73.15-1.46.06-2.16ZM135.51,66.68c-.82.85-1.78,1.39-2.69,1.51-.59.08-1.19-.09-1.4-.4-.25-.37-.02-1.13.46-1.56.67-.6,1.72-.95,2.81-.95.13,0,.26,0,.38.01.45.03.87.13,1.24.27-.22.41-.5.79-.81,1.12Z" style="fill: #000; stroke-width: 0px;"/>
    <path d="M176.04,55.45c-.12-.21-.28-.37-.49-.49-.21-.12-.45-.18-.72-.18s-.5.06-.71.18c-.2.12-.36.28-.48.49-.11.21-.17.44-.17.7s.06.49.18.7c.12.21.28.38.48.5.2.12.44.18.71.18s.51-.06.71-.18c.2-.12.37-.29.48-.5.12-.21.18-.44.18-.71s-.06-.48-.18-.69ZM175.81,56.72c-.09.17-.22.3-.39.4-.16.1-.36.15-.58.15s-.4-.05-.57-.15c-.16-.1-.29-.23-.38-.4-.09-.17-.14-.36-.14-.57s.05-.4.14-.56c.09-.17.22-.3.38-.4.16-.1.35-.15.57-.15s.41.05.58.15c.16.1.29.23.39.4.09.17.14.35.14.56s-.05.4-.14.57Z" style="fill: #000; stroke-width: 0px;"/>
    <path d="M175.27,56.13c.09-.07.13-.17.13-.29s-.04-.22-.13-.29c-.09-.08-.19-.11-.33-.11h-.55v1.37h.3v-.56h.03l.41.56h.36l-.44-.58c.09-.02.16-.04.22-.09ZM174.69,56.02v-.34h.22c.06,0,.1.02.14.05.03.03.05.07.05.13,0,.05-.02.09-.05.12-.04.03-.08.05-.14.05h-.22Z" style="fill: #000; stroke-width: 0px;"/>
  </g>
  <g>
    <path d="M71.22,56.54l-3.95.6s-.18-.61-.18-.62c-1.92-5.92-7.73-10.23-14.59-10.23-7.59,0-13.89,5.26-15.07,12.14-.23,1.33.73,2.42,2.15,2.42,11.07-1.56,21.7-1.68,31.79,0,1.29,0,2.33-1.02,2.28-2.26-.05-1.18-.88-2.06-2.42-2.06Z" style="fill: #000; stroke-width: 0px;"/>
    <path d="M66.84,64.83h-.02c-1.02.01-1.83.84-1.82,1.86v.07c0,5.91-5.45,10.71-12.16,10.71s-12.16-4.81-12.16-10.68c0-.02,0-.08,0-.1.01-1.02-.81-1.86-1.82-1.87-1.02-.03-1.85.8-1.86,1.81,0,.03,0,.1,0,.13,0,7.94,7.11,14.4,15.85,14.4s15.85-6.46,15.85-14.4v-.11c-.01-1.01-.84-1.82-1.84-1.82Z" style="fill: #000; stroke-width: 0px;"/>
    <ellipse cx="48.49" cy="66.72" rx="2.81" ry="4.39" style="fill: #000; stroke-width: 0px;"/>
    <ellipse cx="57.18" cy="66.72" rx="2.81" ry="4.39" style="fill: #000; stroke-width: 0px;"/>
  </g>
</svg>