<svg width="67" height="64" viewBox="0 0 67 64" fill="none" xmlns="http://www.w3.org/2000/svg">
<path d="M62.9399 18.6695C62.5371 18.6336 62.1317 18.6738 61.732 18.7349L55.7332 19.6511C55.3434 19.7106 55.0829 19.5553 54.9737 19.1763C54.8669 18.8054 54.7581 18.4313 54.6307 18.0669C50.9586 7.57147 40.5321 0 28.2399 0C14.4192 0 2.95521 9.56806 0.803887 22.1054C0.387122 24.5348 2.12462 26.5154 4.71913 26.5154C24.629 23.7088 43.7708 23.4578 61.9492 26.4079C62.3843 26.4785 62.8266 26.5319 63.2624 26.4658C65.2999 26.1568 66.8422 24.4401 66.7466 22.4018C66.6542 20.4138 65.3675 18.8859 62.9399 18.6695Z" fill="black"/>
<path d="M28.8551 63.4489C28.8541 63.448 28.8528 63.4475 28.8515 63.4475C12.942 63.4464 0 51.6899 0 37.2431C0 37.1932 0.00293496 37.0583 0.00586992 37.0113C0.0264147 35.1599 1.54085 33.6547 3.39575 33.7105C5.24771 33.731 6.73574 35.2656 6.71519 37.117C6.71519 37.1551 6.71226 37.2666 6.70932 37.3047C6.70932 47.9936 16.6442 56.7431 28.8536 56.7431C41.063 56.7431 50.9979 47.9966 50.9979 37.2461V37.1199C50.9744 35.2685 52.4624 33.7516 54.3144 33.731H54.3496C56.1869 33.731 57.6837 35.2098 57.7043 37.0524V37.2461C57.7072 51.6958 44.7652 63.4494 28.8586 63.4504C28.8573 63.4504 28.856 63.4499 28.8551 63.4489Z" fill="black"/>
<path d="M34.2686 39.0321C34.2676 39.0311 34.2663 39.0306 34.265 39.0306C33.4322 39.0301 32.5995 38.7132 31.9631 38.077C30.6894 36.8036 30.6894 34.741 31.9631 33.4705L32.0893 33.3443C34.0176 31.4137 36.5828 30.3516 39.3123 30.3516C42.0418 30.3516 44.604 31.4137 46.5352 33.3443C47.8061 34.6177 47.8061 36.6804 46.5352 37.9538C45.2615 39.2242 43.1982 39.2242 41.9244 37.9538C40.5303 36.5572 38.0972 36.5601 36.7002 37.9538L36.574 38.0799C35.9376 38.7161 35.1049 39.033 34.2721 39.0335C34.2708 39.0335 34.2695 39.033 34.2686 39.0321Z" fill="black"/>
<path d="M13.478 39.0299C12.6445 39.0299 11.811 38.713 11.1741 38.0763C9.90031 36.8029 9.90031 34.7402 11.1741 33.4698L11.3003 33.3436C15.283 29.362 21.7634 29.362 25.7462 33.3436C27.0199 34.617 27.0199 36.6796 25.7462 37.9501C24.4724 39.2235 22.4091 39.2235 21.1383 37.9501C19.6972 36.5095 17.3522 36.5095 15.9111 37.9501L15.7849 38.0763C15.148 38.713 14.3145 39.0299 13.481 39.0299H13.478Z" fill="black"/>
</svg>
