<svg width="196" height="39" viewBox="0 0 196 39" fill="none" xmlns="http://www.w3.org/2000/svg">
<path d="M148.219 10.8824C150.738 15.0652 157.021 15.0652 159.541 10.8824L164.687 32.1525L158.404 29.6792C156.168 26.1819 151.786 25.7972 149.073 28.6046C148.558 29.1378 147.923 29.568 147.189 29.6792L148.219 10.8824Z" fill="#F1EDEA"/>
<path d="M0 19.2915C0 8.6371 8.98621 0 20.0713 0H131.235C142.32 0 151.306 8.6371 151.306 19.2915C151.306 29.9459 142.32 38.583 131.235 38.583H20.0713C8.98621 38.583 0 29.9459 0 19.2915Z" fill="#F1EDEA"/>
<path d="M155.424 19.5C155.424 8.73044 164.507 0 175.712 0C186.917 0 196 8.73044 196 19.5C196 30.2696 186.917 39 175.712 39C164.507 39 155.424 30.2696 155.424 19.5Z" fill="#F1EDEA"/>
</svg>
