<svg width="196" height="39" viewBox="0 0 196 39" fill="none" xmlns="http://www.w3.org/2000/svg">
<path d="M148.219 10.8824C150.738 15.0652 157.021 15.0652 159.541 10.8824L164.687 32.1525L158.404 29.6792C156.168 26.1819 151.786 25.7972 149.073 28.6046C148.558 29.1378 147.923 29.568 147.189 29.6792L148.219 10.8824Z" fill="#F1EDEA"/>
<path d="M0 19.2915C0 8.6371 8.98621 0 20.0713 0H131.235C142.32 0 151.306 8.6371 151.306 19.2915C151.306 29.9459 142.32 38.583 131.235 38.583H20.0713C8.98621 38.583 0 29.9459 0 19.2915Z" fill="#F1EDEA"/>
<path d="M155.424 19.5C155.424 8.73044 164.507 0 175.712 0C186.917 0 196 8.73044 196 19.5C196 30.2696 186.917 39 175.712 39C164.507 39 155.424 30.2696 155.424 19.5Z" fill="#F1EDEA"/>
<path d="M166 19C165.448 19 165 19.4477 165 20C165 20.5523 165.448 21 166 21V19ZM182.707 20.7071C183.098 20.3166 183.098 19.6834 182.707 19.2929L176.343 12.9289C175.953 12.5384 175.319 12.5384 174.929 12.9289C174.538 13.3195 174.538 13.9526 174.929 14.3431L180.586 20L174.929 25.6569C174.538 26.0474 174.538 26.6805 174.929 27.0711C175.319 27.4616 175.953 27.4616 176.343 27.0711L182.707 20.7071ZM166 21L182 21V19L166 19V21Z" fill="black"/>
<path d="M25.489 25.225C22.369 25.225 19.939 22.9 19.939 19.57C19.939 16.39 22.249 14.005 25.399 14.005C28.129 14.005 30.079 15.625 30.784 17.965H28.099C27.769 16.87 26.779 16.045 25.339 16.045C23.599 16.045 22.279 17.32 22.279 19.63C22.279 21.7 23.434 23.29 25.594 23.29C27.184 23.29 28.189 22.345 28.489 21.01H25.369V19.195H30.919C31.054 22.705 28.924 25.225 25.489 25.225ZM35.8075 25.135C33.4075 25.135 31.8025 23.47 31.8025 20.965C31.8025 18.58 33.4675 16.84 35.7775 16.84C38.3125 16.84 39.9925 18.895 39.6175 21.505H33.9325C34.0675 22.81 34.6975 23.53 35.7625 23.53C36.6775 23.53 37.2925 23.08 37.5325 22.285H39.6025C39.1525 24.1 37.7575 25.135 35.8075 25.135ZM35.7325 18.37C34.7575 18.37 34.1425 19 33.9625 20.185H37.4125C37.3525 19.075 36.7225 18.37 35.7325 18.37ZM45.9354 22.975V24.79C45.4254 25.045 44.9454 25.15 44.3304 25.15C42.6804 25.15 41.6454 24.205 41.6454 22.405V18.775H40.0254V16.99H41.6454V14.62H43.7154V16.99H46.0104V18.775H43.7154V21.925C43.7154 22.855 44.1354 23.23 44.8854 23.23C45.2754 23.23 45.6354 23.14 45.9354 22.975ZM55.1883 25V24.01C54.6633 24.76 53.8683 25.15 52.7733 25.15C51.1083 25.15 49.9983 24.175 49.9983 22.675C49.9983 21.115 51.2583 20.275 53.5983 20.275C54.0483 20.275 54.4383 20.305 54.9333 20.365V19.885C54.9333 18.985 54.4233 18.46 53.5533 18.46C52.6533 18.46 52.1133 18.985 52.0383 19.885H50.1633C50.2833 18.04 51.6183 16.84 53.5533 16.84C55.6533 16.84 56.8833 17.995 56.8833 19.96V25H55.1883ZM51.9633 22.615C51.9633 23.29 52.4433 23.71 53.2233 23.71C54.2883 23.71 54.9333 23.125 54.9333 22.195V21.625C54.4383 21.55 54.0933 21.52 53.7333 21.52C52.5483 21.52 51.9633 21.895 51.9633 22.615ZM60.765 20.635V25H58.68V16.99H60.6V18.13C61.185 17.335 62.01 16.84 63.06 16.84C64.665 16.84 65.775 17.89 65.775 19.825V25H63.705V20.53C63.705 19.345 63.24 18.685 62.295 18.685C61.47 18.685 60.765 19.345 60.765 20.635ZM74.1864 25.135C71.7864 25.135 70.1814 23.47 70.1814 20.965C70.1814 18.58 71.8464 16.84 74.1564 16.84C76.6914 16.84 78.3714 18.895 77.9964 21.505H72.3114C72.4464 22.81 73.0764 23.53 74.1414 23.53C75.0564 23.53 75.6714 23.08 75.9114 22.285H77.9814C77.5314 24.1 76.1364 25.135 74.1864 25.135ZM74.1114 18.37C73.1364 18.37 72.5214 19 72.3414 20.185H75.7914C75.7314 19.075 75.1014 18.37 74.1114 18.37ZM86.1579 22.435C86.1579 24.115 84.8829 25.15 82.6029 25.15C80.3229 25.15 79.0479 24.055 78.8829 22.27H80.8779C80.8929 23.095 81.5979 23.62 82.6329 23.62C83.4429 23.62 84.0579 23.365 84.0579 22.795C84.0579 22.285 83.7279 22.075 82.9629 21.925L81.5229 21.655C80.0829 21.4 79.2129 20.605 79.2129 19.36C79.2129 17.875 80.4879 16.84 82.4829 16.84C84.4929 16.84 85.8729 17.905 86.0229 19.63H84.0279C83.9529 18.85 83.3679 18.37 82.4829 18.37C81.7179 18.37 81.2079 18.655 81.2079 19.165C81.2079 19.645 81.5379 19.84 82.2579 19.975L83.8029 20.26C85.3629 20.56 86.1579 21.28 86.1579 22.435ZM92.4002 22.975V24.79C91.8902 25.045 91.4102 25.15 90.7952 25.15C89.1452 25.15 88.1102 24.205 88.1102 22.405V18.775H86.4902V16.99H88.1102V14.62H90.1802V16.99H92.4752V18.775H90.1802V21.925C90.1802 22.855 90.6002 23.23 91.3502 23.23C91.7402 23.23 92.1002 23.14 92.4002 22.975ZM96.1634 15.13C96.1634 15.835 95.5934 16.36 94.7684 16.36C93.9584 16.36 93.3884 15.835 93.3884 15.13C93.3884 14.395 93.9584 13.87 94.7684 13.87C95.5934 13.87 96.1634 14.395 96.1634 15.13ZM95.8334 25H93.7484V16.99H95.8334V25ZM99.7738 25H97.6888V16.99H99.6088V18.13C100.194 17.32 100.944 16.84 102.009 16.84C103.104 16.84 103.944 17.35 104.349 18.265C104.979 17.38 105.789 16.84 106.989 16.84C108.609 16.84 109.704 17.905 109.704 19.825V25H107.634V20.485C107.634 19.36 107.154 18.685 106.239 18.685C105.414 18.685 104.739 19.33 104.739 20.53V25H102.669V20.485C102.669 19.36 102.189 18.685 101.274 18.685C100.434 18.685 99.7738 19.33 99.7738 20.53V25ZM116.258 25V24.01C115.733 24.76 114.938 25.15 113.843 25.15C112.178 25.15 111.068 24.175 111.068 22.675C111.068 21.115 112.328 20.275 114.668 20.275C115.118 20.275 115.508 20.305 116.003 20.365V19.885C116.003 18.985 115.493 18.46 114.623 18.46C113.723 18.46 113.183 18.985 113.108 19.885H111.233C111.353 18.04 112.688 16.84 114.623 16.84C116.723 16.84 117.953 17.995 117.953 19.96V25H116.258ZM113.033 22.615C113.033 23.29 113.513 23.71 114.293 23.71C115.358 23.71 116.003 23.125 116.003 22.195V21.625C115.508 21.55 115.163 21.52 114.803 21.52C113.618 21.52 113.033 21.895 113.033 22.615ZM124.612 22.975V24.79C124.102 25.045 123.622 25.15 123.007 25.15C121.357 25.15 120.322 24.205 120.322 22.405V18.775H118.702V16.99H120.322V14.62H122.392V16.99H124.687V18.775H122.392V21.925C122.392 22.855 122.812 23.23 123.562 23.23C123.952 23.23 124.312 23.14 124.612 22.975ZM129.264 25.135C126.864 25.135 125.259 23.47 125.259 20.965C125.259 18.58 126.924 16.84 129.234 16.84C131.769 16.84 133.449 18.895 133.074 21.505H127.389C127.524 22.81 128.154 23.53 129.219 23.53C130.134 23.53 130.749 23.08 130.989 22.285H133.059C132.609 24.1 131.214 25.135 129.264 25.135ZM129.189 18.37C128.214 18.37 127.599 19 127.419 20.185H130.869C130.809 19.075 130.179 18.37 129.189 18.37Z" fill="black"/>
</svg>
