<svg width="102" height="97" viewBox="0 0 102 97" fill="none" xmlns="http://www.w3.org/2000/svg">
<path d="M94.8882 28.3897L83.9505 30.0608C83.9237 30.0608 83.4501 28.3763 83.4457 28.3495C78.1243 11.9341 62.026 0 42.9878 0C21.948 0 4.49593 14.5702 1.22088 33.662C0.586423 37.3615 3.23148 40.3774 7.1812 40.3774C37.8541 36.0524 67.3295 35.7128 95.2993 40.3774C98.8826 40.3774 101.769 37.5447 101.608 34.1133C101.456 30.8427 99.182 28.3897 94.8882 28.3897Z" fill="black"/>
<path d="M43.925 96.6166C19.7039 96.6166 0 78.7133 0 56.7128C0 56.6369 0.00446801 56.4313 0.00893602 56.3598C0.0402121 53.5405 2.3457 51.2484 5.16949 51.3333C7.9888 51.3646 10.2541 53.7014 10.2228 56.5207C10.2228 56.5788 10.2183 56.7486 10.2139 56.8067C10.2139 73.0836 25.3381 86.4072 43.925 86.4072C62.5119 86.4072 77.6361 73.0881 77.6361 56.7173V56.5252C77.6004 53.7059 79.8657 51.3959 82.685 51.3646H82.7386C85.5356 51.3646 87.8143 53.6165 87.8455 56.4224V56.7173C87.85 78.7222 68.1461 96.6211 43.9295 96.6211L43.925 96.6166Z" fill="black"/>
<path d="M52.16 59.4332C50.8911 59.4332 49.6221 58.9506 48.6526 57.9811C46.7135 56.042 46.7135 52.9009 48.6526 50.9663L48.8447 50.7742C51.7802 47.8342 55.6852 46.2168 59.8405 46.2168C63.9957 46.2168 67.8963 47.8342 70.8362 50.7742C72.7709 52.7133 72.7709 55.8543 70.8362 57.7934C68.8971 59.7281 65.7561 59.7281 63.817 57.7934C61.6947 55.6666 57.9907 55.6711 55.8639 57.7934L55.6718 57.9855C54.7023 58.9551 53.4333 59.4376 52.1644 59.4376L52.16 59.4332Z" fill="black"/>
<path d="M20.5223 59.4334C19.2534 59.4334 17.9844 58.9508 17.0149 57.9813C15.0758 56.0422 15.0758 52.9011 17.0149 50.9665L17.207 50.7744C23.2701 44.7113 33.1355 44.7113 39.1986 50.7744C41.1377 52.7135 41.1377 55.8545 39.1986 57.7891C37.2594 59.7283 34.1184 59.7283 32.1838 57.7891C29.99 55.5953 26.42 55.5953 24.2263 57.7891L24.0341 57.9813C23.0646 58.9508 21.7957 59.4334 20.5267 59.4334H20.5223Z" fill="black"/>
</svg>
