<svg width="37" height="35" viewBox="0 0 37 35" fill="none" xmlns="http://www.w3.org/2000/svg">
<path d="M33.6843 10.0783L29.8018 10.6715C29.7923 10.6715 29.6242 10.0735 29.6226 10.064C27.7337 4.23655 22.0194 0 15.2615 0C7.79308 0 1.59821 5.17236 0.435685 11.9499C0.210475 13.2632 1.14938 14.3338 2.55139 14.3338C13.4392 12.7985 23.9019 12.6779 33.8302 14.3338C35.1022 14.3338 36.1267 13.3282 36.0696 12.1101C36.0157 10.949 35.2084 10.0783 33.6843 10.0783Z" fill="#0A0A0A"/>
<path d="M15.5918 34.2979C6.9942 34.2979 0 27.9423 0 20.1322C0 20.1052 0.00158599 20.0323 0.00317197 20.0069C0.0142739 19.006 0.832643 18.1924 1.83499 18.2225C2.83574 18.2336 3.63984 19.0631 3.62874 20.064C3.62874 20.0846 3.62715 20.1449 3.62556 20.1655C3.62556 25.9438 8.99413 30.6736 15.5918 30.6736C22.1895 30.6736 27.5581 25.9453 27.5581 20.1338V20.0656C27.5454 19.0647 28.3495 18.2447 29.3503 18.2336H29.3693C30.3621 18.2336 31.171 19.033 31.1821 20.0291V20.1338C31.1837 27.9455 24.1895 34.2995 15.5934 34.2995L15.5918 34.2979Z" fill="#0A0A0A"/>
<path d="M10.1126 24.1668C9.77321 24.1668 9.43222 24.0368 9.17371 23.7782C8.65509 23.2595 8.65509 22.4189 9.17371 21.9002L11.2672 19.8065L9.09599 17.6351C8.57738 17.1165 8.57738 16.2758 9.09599 15.7572C9.61461 15.2385 10.4552 15.2385 10.9738 15.7572L14.0839 18.8676C14.6025 19.3862 14.6025 20.2269 14.0839 20.7455L11.0515 23.7782C10.793 24.0368 10.452 24.1668 10.1126 24.1668Z" fill="#0A0A0A"/>
<path d="M21.0712 24.1668C20.7318 24.1668 20.3908 24.0368 20.1323 23.7782L17.0999 20.7455C16.5813 20.2269 16.5813 19.3862 17.0999 18.8676L20.21 15.7572C20.7286 15.2385 21.5692 15.2385 22.0878 15.7572C22.6064 16.2758 22.6064 17.1165 22.0878 17.6351L19.9166 19.8065L22.0101 21.9002C22.5287 22.4189 22.5287 23.2595 22.0101 23.7782C21.7516 24.0368 21.4106 24.1668 21.0712 24.1668Z" fill="#0A0A0A"/>
</svg>
