<svg width="37" height="35" viewBox="0 0 37 35" fill="none" xmlns="http://www.w3.org/2000/svg">
<path d="M33.6843 10.0783L29.8018 10.6715C29.7923 10.6715 29.6242 10.0735 29.6226 10.064C27.7337 4.23655 22.0194 0 15.2615 0C7.79308 0 1.59821 5.17236 0.435685 11.9499C0.210475 13.2632 1.14938 14.3338 2.55139 14.3338C13.4392 12.7985 23.9019 12.6779 33.8302 14.3338C35.1022 14.3338 36.1267 13.3282 36.0696 12.1101C36.0157 10.949 35.2084 10.0783 33.6843 10.0783Z" fill="#0A0A0A"/>
<path d="M15.5918 34.2979C6.9942 34.2979 0 27.9423 0 20.1322C0 20.1052 0.00158599 20.0323 0.00317197 20.0069C0.0142739 19.006 0.832643 18.1924 1.83499 18.2225C2.83574 18.2336 3.63984 19.0631 3.62874 20.064C3.62874 20.0846 3.62715 20.1449 3.62556 20.1655C3.62556 25.9438 8.99413 30.6736 15.5918 30.6736C22.1895 30.6736 27.5581 25.9453 27.5581 20.1338V20.0656C27.5454 19.0647 28.3495 18.2447 29.3503 18.2336H29.3693C30.3621 18.2336 31.171 19.033 31.1821 20.0291V20.1338C31.1837 27.9455 24.1895 34.2995 15.5934 34.2995L15.5918 34.2979Z" fill="#0A0A0A"/>
<path d="M21.2233 24.5683C20.8776 24.5683 20.5318 24.4367 20.2685 24.1734L17.0902 20.9948C16.8365 20.741 16.6953 20.3984 16.6953 20.04C16.6953 19.6815 16.8381 19.3389 17.0902 19.0851L20.3494 15.8256C20.876 15.299 21.7324 15.299 22.259 15.8256C22.7855 16.3522 22.7855 17.2071 22.259 17.7353L19.9545 20.04L22.1781 22.2637C22.7046 22.7903 22.7046 23.6452 22.1781 24.1734C21.9148 24.4367 21.569 24.5683 21.2233 24.5683Z" fill="#0A0A0A"/>
<path d="M11.6298 24.169C12.9743 24.169 14.0643 22.302 14.0643 19.999C14.0643 17.696 12.9743 15.8291 11.6298 15.8291C10.2853 15.8291 9.19531 17.696 9.19531 19.999C9.19531 22.302 10.2853 24.169 11.6298 24.169Z" fill="#0A0A0A"/>
</svg>
