<svg width="37" height="35" viewBox="0 0 37 35" fill="none" xmlns="http://www.w3.org/2000/svg">
<path d="M33.6845 10.0783L29.802 10.6715C29.7925 10.6715 29.6244 10.0735 29.6228 10.064C27.7339 4.23655 22.0195 0 15.2616 0C7.79312 0 1.59822 5.17236 0.435685 11.9499C0.210473 13.2632 1.14938 14.3338 2.5514 14.3338C13.4393 12.7985 23.9021 12.6779 33.8304 14.3338C35.1024 14.3338 36.1269 13.3282 36.0699 12.1101C36.0159 10.949 35.2087 10.0783 33.6845 10.0783Z" fill="#0A0A0A"/>
<path d="M15.5919 34.2979C6.99424 34.2979 0 27.9423 0 20.1322C0 20.1052 0.001586 20.0323 0.00317199 20.0069C0.014274 19.006 0.832648 18.1924 1.835 18.2225C2.83576 18.2336 3.63986 19.0631 3.62876 20.064C3.62876 20.0846 3.62717 20.1449 3.62559 20.1655C3.62559 25.9438 8.99418 30.6736 15.5919 30.6736C22.1897 30.6736 27.5583 25.9453 27.5583 20.1338V20.0656C27.5456 19.0647 28.3497 18.2447 29.3504 18.2336H29.3695C30.3623 18.2336 31.1712 19.033 31.1823 20.0291V20.1338C31.1839 27.9455 24.1896 34.2995 15.5935 34.2995L15.5919 34.2979Z" fill="#0A0A0A"/>
<path d="M18.5191 21.099C18.0686 21.099 17.6182 20.9277 17.2741 20.5835C16.5857 19.8951 16.5857 18.7801 17.2741 18.0933L17.3423 18.0251C18.3843 16.9814 19.7704 16.4072 21.2454 16.4072C22.7204 16.4072 24.1049 16.9814 25.1485 18.0251C25.8353 18.7135 25.8353 19.8285 25.1485 20.5169C24.4602 21.2037 23.3452 21.2037 22.6569 20.5169C21.9036 19.7619 20.5888 19.7635 19.8339 20.5169L19.7657 20.5851C19.4215 20.9293 18.9711 21.1006 18.5206 21.1006L18.5191 21.099Z" fill="#0A0A0A"/>
<path d="M7.28859 21.0984C6.83817 21.0984 6.38775 20.9271 6.04359 20.5829C5.35526 19.8945 5.35526 18.7794 6.04359 18.0926L6.11178 18.0244C8.26398 15.8721 11.7659 15.8721 13.9181 18.0244C14.6064 18.7128 14.6064 19.8279 13.9181 20.5147C13.2297 21.203 12.1148 21.203 11.428 20.5147C10.6493 19.7359 9.38211 19.7359 8.60338 20.5147L8.53519 20.5829C8.19102 20.9271 7.7406 21.0984 7.29018 21.0984H7.28859Z" fill="#0A0A0A"/>
</svg>
