<svg width="37" height="35" viewBox="0 0 37 35" fill="none" xmlns="http://www.w3.org/2000/svg">
<path d="M34.4462 10.7805L30.5637 11.3737C30.5542 11.3737 30.3861 10.7758 30.3845 10.7663C28.4956 4.93932 22.7812 0.703125 16.0233 0.703125C8.55484 0.703125 2.35994 5.87506 1.1974 12.652C0.972192 13.9652 1.9111 15.0358 3.31312 15.0358C14.201 13.5005 24.6638 13.38 34.5921 15.0358C35.8641 15.0358 36.8887 14.0303 36.8316 12.8122C36.7777 11.6513 35.9704 10.7805 34.4462 10.7805Z" fill="#0A0A0A"/>
<path d="M16.3576 34.9987C7.75987 34.9987 0.765625 28.6436 0.765625 20.8342C0.765625 20.8072 0.767211 20.7343 0.768797 20.7089C0.779899 19.7081 1.59827 18.8945 2.60062 18.9246C3.60139 18.9357 4.40549 19.7652 4.39439 20.766C4.39439 20.7866 4.3928 20.8469 4.39121 20.8675C4.39121 26.6453 9.75981 31.3747 16.3576 31.3747C22.9553 31.3747 28.3239 26.6469 28.3239 20.8358V20.7676C28.3112 19.7668 29.1153 18.9468 30.1161 18.9357H30.1351C31.1279 18.9357 31.9368 19.7351 31.9479 20.7311V20.8358C31.9495 28.6468 24.9552 35.0003 16.3591 35.0003L16.3576 34.9987Z" fill="#0A0A0A"/>
<path d="M12.169 24.8689C13.6624 24.8689 14.8731 22.978 14.8731 20.6454C14.8731 18.3128 13.6624 16.4219 12.169 16.4219C10.6755 16.4219 9.46484 18.3128 9.46484 20.6454C9.46484 22.978 10.6755 24.8689 12.169 24.8689Z" fill="#0A0A0A"/>
<path d="M20.5401 24.8689C22.0335 24.8689 23.2442 22.978 23.2442 20.6454C23.2442 18.3128 22.0335 16.4219 20.5401 16.4219C19.0466 16.4219 17.8359 18.3128 17.8359 20.6454C17.8359 22.978 19.0466 24.8689 20.5401 24.8689Z" fill="#0A0A0A"/>
</svg>
