<svg width="37" height="35" viewBox="0 0 37 35" fill="none" xmlns="http://www.w3.org/2000/svg">
<path d="M33.6843 10.0783L29.8018 10.6715C29.7923 10.6715 29.6242 10.0735 29.6226 10.064C27.7337 4.23655 22.0194 0 15.2615 0C7.79308 0 1.59821 5.17236 0.435685 11.9499C0.210475 13.2632 1.14938 14.3338 2.55139 14.3338C13.4392 12.7985 23.9019 12.6779 33.8302 14.3338C35.1022 14.3338 36.1267 13.3282 36.0696 12.1101C36.0157 10.949 35.2084 10.0783 33.6843 10.0783Z" fill="#0A0A0A"/>
<path d="M15.5918 34.2979C6.9942 34.2979 0 27.9423 0 20.1322C0 20.1052 0.00158599 20.0323 0.00317197 20.0069C0.0142739 19.006 0.832643 18.1924 1.83499 18.2225C2.83574 18.2336 3.63984 19.0631 3.62874 20.064C3.62874 20.0846 3.62715 20.1449 3.62556 20.1655C3.62556 25.9438 8.99413 30.6736 15.5918 30.6736C22.1895 30.6736 27.5581 25.9453 27.5581 20.1338V20.0656C27.5454 19.0647 28.3495 18.2447 29.3503 18.2336H29.3693C30.3621 18.2336 31.171 19.033 31.1821 20.0291V20.1338C31.1837 27.9455 24.1895 34.2995 15.5934 34.2995L15.5918 34.2979Z" fill="#0A0A0A"/>
<path d="M20.6903 22.5602C20.2335 22.5602 19.7751 22.3858 19.4262 22.0368L16.9648 19.5751C16.2669 18.8773 16.2669 17.7448 16.9648 17.0469C17.6626 16.349 18.795 16.349 19.4928 17.0469L20.6887 18.2428L21.8242 17.1071C22.5221 16.4092 23.6545 16.4092 24.3523 17.1071C25.0501 17.805 25.0501 18.9375 24.3523 19.6354L21.9527 22.0352C21.6038 22.3842 21.1454 22.5587 20.6887 22.5587L20.6903 22.5602Z" fill="#0A0A0A"/>
<path d="M10.552 22.5602C10.0777 22.5602 9.62257 22.3715 9.28793 22.0368L6.82806 19.5751C6.13023 18.8773 6.13023 17.7448 6.82806 17.0469C7.5259 16.349 8.65829 16.349 9.35612 17.0469L10.552 18.2428L11.6875 17.1087C12.3854 16.4108 13.5178 16.4108 14.2156 17.1087C14.9134 17.8066 14.9134 18.9391 14.2156 19.637L11.816 22.0368C11.4813 22.3715 11.0262 22.5602 10.552 22.5602Z" fill="#0A0A0A"/>
</svg>
