<svg width="201" height="50" viewBox="0 0 201 50" fill="none" xmlns="http://www.w3.org/2000/svg">
<g filter="url(#filter0_d_1393_1835)">
<path d="M149 16C151.448 20.2281 157.552 20.2281 160 16L165 37.5L158.895 35C156.719 31.4569 152.447 31.0743 149.812 33.933C149.324 34.4626 148.711 34.8877 148 35L149 16Z" fill="#F1EDEA"/>
<path d="M5 24.5C5 13.7304 13.7304 5 24.5 5H132.5C143.27 5 152 13.7304 152 24.5C152 35.2696 143.27 44 132.5 44H24.5C13.7304 44 5 35.2696 5 24.5Z" fill="#F1EDEA"/>
<path d="M156 24.7107C156 13.8248 164.825 5 175.711 5C186.597 5 195.421 13.8248 195.421 24.7107C195.421 35.5967 186.597 44.4215 175.711 44.4215C164.825 44.4215 156 35.5967 156 24.7107Z" fill="#F1EDEA"/>
<path d="M168 24C167.448 24 167 24.4477 167 25C167 25.5523 167.448 26 168 26V24ZM184.707 25.7071C185.098 25.3166 185.098 24.6834 184.707 24.2929L178.343 17.9289C177.953 17.5384 177.319 17.5384 176.929 17.9289C176.538 18.3195 176.538 18.9526 176.929 19.3431L182.586 25L176.929 30.6569C176.538 31.0474 176.538 31.6805 176.929 32.0711C177.319 32.4616 177.953 32.4616 178.343 32.0711L184.707 25.7071ZM168 26L184 26V24L168 24V26Z" fill="black"/>
<path d="M31.7913 24.63C32.3813 24.74 32.8663 25.035 33.2463 25.515C33.6263 25.995 33.8163 26.545 33.8163 27.165C33.8163 27.725 33.6763 28.22 33.3963 28.65C33.1263 29.07 32.7313 29.4 32.2113 29.64C31.6913 29.88 31.0763 30 30.3663 30H25.8513V19.53H30.1713C30.8813 19.53 31.4913 19.645 32.0013 19.875C32.5213 20.105 32.9113 20.425 33.1713 20.835C33.4413 21.245 33.5763 21.71 33.5763 22.23C33.5763 22.84 33.4113 23.35 33.0813 23.76C32.7613 24.17 32.3313 24.46 31.7913 24.63ZM27.9513 23.85H29.8713C30.3713 23.85 30.7563 23.74 31.0263 23.52C31.2963 23.29 31.4313 22.965 31.4313 22.545C31.4313 22.125 31.2963 21.8 31.0263 21.57C30.7563 21.34 30.3713 21.225 29.8713 21.225H27.9513V23.85ZM30.0663 28.29C30.5763 28.29 30.9713 28.17 31.2513 27.93C31.5413 27.69 31.6863 27.35 31.6863 26.91C31.6863 26.46 31.5363 26.11 31.2363 25.86C30.9363 25.6 30.5313 25.47 30.0213 25.47H27.9513V28.29H30.0663ZM39.18 30.135C38.38 30.135 37.66 29.96 37.02 29.61C36.38 29.25 35.875 28.745 35.505 28.095C35.145 27.445 34.965 26.695 34.965 25.845C34.965 24.995 35.15 24.245 35.52 23.595C35.9 22.945 36.415 22.445 37.065 22.095C37.715 21.735 38.44 21.555 39.24 21.555C40.04 21.555 40.765 21.735 41.415 22.095C42.065 22.445 42.575 22.945 42.945 23.595C43.325 24.245 43.515 24.995 43.515 25.845C43.515 26.695 43.32 27.445 42.93 28.095C42.55 28.745 42.03 29.25 41.37 29.61C40.72 29.96 39.99 30.135 39.18 30.135ZM39.18 28.305C39.56 28.305 39.915 28.215 40.245 28.035C40.585 27.845 40.855 27.565 41.055 27.195C41.255 26.825 41.355 26.375 41.355 25.845C41.355 25.055 41.145 24.45 40.725 24.03C40.315 23.6 39.81 23.385 39.21 23.385C38.61 23.385 38.105 23.6 37.695 24.03C37.295 24.45 37.095 25.055 37.095 25.845C37.095 26.635 37.29 27.245 37.68 27.675C38.08 28.095 38.58 28.305 39.18 28.305ZM48.7454 30.135C47.9454 30.135 47.2254 29.96 46.5854 29.61C45.9454 29.25 45.4404 28.745 45.0704 28.095C44.7104 27.445 44.5304 26.695 44.5304 25.845C44.5304 24.995 44.7154 24.245 45.0854 23.595C45.4654 22.945 45.9804 22.445 46.6304 22.095C47.2804 21.735 48.0054 21.555 48.8054 21.555C49.6054 21.555 50.3304 21.735 50.9804 22.095C51.6304 22.445 52.1404 22.945 52.5104 23.595C52.8904 24.245 53.0804 24.995 53.0804 25.845C53.0804 26.695 52.8854 27.445 52.4954 28.095C52.1154 28.745 51.5954 29.25 50.9354 29.61C50.2854 29.96 49.5554 30.135 48.7454 30.135ZM48.7454 28.305C49.1254 28.305 49.4804 28.215 49.8104 28.035C50.1504 27.845 50.4204 27.565 50.6204 27.195C50.8204 26.825 50.9204 26.375 50.9204 25.845C50.9204 25.055 50.7104 24.45 50.2904 24.03C49.8804 23.6 49.3754 23.385 48.7754 23.385C48.1754 23.385 47.6704 23.6 47.2604 24.03C46.8604 24.45 46.6604 25.055 46.6604 25.845C46.6604 26.635 46.8554 27.245 47.2454 27.675C47.6454 28.095 48.1454 28.305 48.7454 28.305ZM59.5408 30L56.7208 26.46V30H54.6208V18.9H56.7208V25.215L59.5108 21.69H62.2408L58.5808 25.86L62.2708 30H59.5408ZM66.4148 25.815C66.4148 24.975 66.5798 24.23 66.9098 23.58C67.2498 22.93 67.7048 22.43 68.2748 22.08C68.8548 21.73 69.4998 21.555 70.2098 21.555C70.8298 21.555 71.3698 21.68 71.8298 21.93C72.2998 22.18 72.6748 22.495 72.9548 22.875V21.69H75.0698V30H72.9548V28.785C72.6848 29.175 72.3098 29.5 71.8298 29.76C71.3598 30.01 70.8148 30.135 70.1948 30.135C69.4948 30.135 68.8548 29.955 68.2748 29.595C67.7048 29.235 67.2498 28.73 66.9098 28.08C66.5798 27.42 66.4148 26.665 66.4148 25.815ZM72.9548 25.845C72.9548 25.335 72.8548 24.9 72.6548 24.54C72.4548 24.17 72.1848 23.89 71.8448 23.7C71.5048 23.5 71.1398 23.4 70.7498 23.4C70.3598 23.4 69.9998 23.495 69.6698 23.685C69.3398 23.875 69.0698 24.155 68.8598 24.525C68.6598 24.885 68.5598 25.315 68.5598 25.815C68.5598 26.315 68.6598 26.755 68.8598 27.135C69.0698 27.505 69.3398 27.79 69.6698 27.99C70.0098 28.19 70.3698 28.29 70.7498 28.29C71.1398 28.29 71.5048 28.195 71.8448 28.005C72.1848 27.805 72.4548 27.525 72.6548 27.165C72.8548 26.795 72.9548 26.355 72.9548 25.845ZM82.7951 22.89C83.0651 22.51 83.4351 22.195 83.9051 21.945C84.3851 21.685 84.9301 21.555 85.5401 21.555C86.2501 21.555 86.8901 21.73 87.4601 22.08C88.0401 22.43 88.4951 22.93 88.8251 23.58C89.1651 24.22 89.3351 24.965 89.3351 25.815C89.3351 26.665 89.1651 27.42 88.8251 28.08C88.4951 28.73 88.0401 29.235 87.4601 29.595C86.8901 29.955 86.2501 30.135 85.5401 30.135C84.9301 30.135 84.3901 30.01 83.9201 29.76C83.4601 29.51 83.0851 29.195 82.7951 28.815V33.96H80.6951V21.69H82.7951V22.89ZM87.1901 25.815C87.1901 25.315 87.0851 24.885 86.8751 24.525C86.6751 24.155 86.4051 23.875 86.0651 23.685C85.7351 23.495 85.3751 23.4 84.9851 23.4C84.6051 23.4 84.2451 23.5 83.9051 23.7C83.5751 23.89 83.3051 24.17 83.0951 24.54C82.8951 24.91 82.7951 25.345 82.7951 25.845C82.7951 26.345 82.8951 26.78 83.0951 27.15C83.3051 27.52 83.5751 27.805 83.9051 28.005C84.2451 28.195 84.6051 28.29 84.9851 28.29C85.3751 28.29 85.7351 28.19 86.0651 27.99C86.4051 27.79 86.6751 27.505 86.8751 27.135C87.0851 26.765 87.1901 26.325 87.1901 25.815ZM91.9261 20.7C91.5561 20.7 91.2461 20.585 90.9961 20.355C90.7561 20.115 90.6361 19.82 90.6361 19.47C90.6361 19.12 90.7561 18.83 90.9961 18.6C91.2461 18.36 91.5561 18.24 91.9261 18.24C92.2961 18.24 92.6011 18.36 92.8411 18.6C93.0911 18.83 93.2161 19.12 93.2161 19.47C93.2161 19.82 93.0911 20.115 92.8411 20.355C92.6011 20.585 92.2961 20.7 91.9261 20.7ZM92.9611 21.69V30H90.8611V21.69H92.9611ZM94.4959 25.845C94.4959 24.985 94.6709 24.235 95.0209 23.595C95.3709 22.945 95.8559 22.445 96.4759 22.095C97.0959 21.735 97.8059 21.555 98.6059 21.555C99.6359 21.555 100.486 21.815 101.156 22.335C101.836 22.845 102.291 23.565 102.521 24.495H100.256C100.136 24.135 99.9309 23.855 99.6409 23.655C99.3609 23.445 99.0109 23.34 98.5909 23.34C97.9909 23.34 97.5159 23.56 97.1659 24C96.8159 24.43 96.6409 25.045 96.6409 25.845C96.6409 26.635 96.8159 27.25 97.1659 27.69C97.5159 28.12 97.9909 28.335 98.5909 28.335C99.4409 28.335 99.9959 27.955 100.256 27.195H102.521C102.291 28.095 101.836 28.81 101.156 29.34C100.476 29.87 99.6259 30.135 98.6059 30.135C97.8059 30.135 97.0959 29.96 96.4759 29.61C95.8559 29.25 95.3709 28.75 95.0209 28.11C94.6709 27.46 94.4959 26.705 94.4959 25.845ZM108.979 30L106.159 26.46V30H104.059V18.9H106.159V25.215L108.949 21.69H111.679L108.019 25.86L111.709 30H108.979ZM120.664 21.69V30H118.549V28.95C118.279 29.31 117.924 29.595 117.484 29.805C117.054 30.005 116.584 30.105 116.074 30.105C115.424 30.105 114.849 29.97 114.349 29.7C113.849 29.42 113.454 29.015 113.164 28.485C112.884 27.945 112.744 27.305 112.744 26.565V21.69H114.844V26.265C114.844 26.925 115.009 27.435 115.339 27.795C115.669 28.145 116.119 28.32 116.689 28.32C117.269 28.32 117.724 28.145 118.054 27.795C118.384 27.435 118.549 26.925 118.549 26.265V21.69H120.664ZM124.836 22.89C125.106 22.51 125.476 22.195 125.946 21.945C126.426 21.685 126.971 21.555 127.581 21.555C128.291 21.555 128.931 21.73 129.501 22.08C130.081 22.43 130.536 22.93 130.866 23.58C131.206 24.22 131.376 24.965 131.376 25.815C131.376 26.665 131.206 27.42 130.866 28.08C130.536 28.73 130.081 29.235 129.501 29.595C128.931 29.955 128.291 30.135 127.581 30.135C126.971 30.135 126.431 30.01 125.961 29.76C125.501 29.51 125.126 29.195 124.836 28.815V33.96H122.736V21.69H124.836V22.89ZM129.231 25.815C129.231 25.315 129.126 24.885 128.916 24.525C128.716 24.155 128.446 23.875 128.106 23.685C127.776 23.495 127.416 23.4 127.026 23.4C126.646 23.4 126.286 23.5 125.946 23.7C125.616 23.89 125.346 24.17 125.136 24.54C124.936 24.91 124.836 25.345 124.836 25.845C124.836 26.345 124.936 26.78 125.136 27.15C125.346 27.52 125.616 27.805 125.946 28.005C126.286 28.195 126.646 28.29 127.026 28.29C127.416 28.29 127.776 28.19 128.106 27.99C128.446 27.79 128.716 27.505 128.916 27.135C129.126 26.765 129.231 26.325 129.231 25.815Z" fill="black"/>
</g>
<defs>
<filter id="filter0_d_1393_1835" x="0" y="0" width="200.422" height="49.4214" filterUnits="userSpaceOnUse" color-interpolation-filters="sRGB">
<feFlood flood-opacity="0" result="BackgroundImageFix"/>
<feColorMatrix in="SourceAlpha" type="matrix" values="0 0 0 0 0 0 0 0 0 0 0 0 0 0 0 0 0 0 127 0" result="hardAlpha"/>
<feOffset/>
<feGaussianBlur stdDeviation="2.5"/>
<feComposite in2="hardAlpha" operator="out"/>
<feColorMatrix type="matrix" values="0 0 0 0 1 0 0 0 0 1 0 0 0 0 1 0 0 0 0.25 0"/>
<feBlend mode="normal" in2="BackgroundImageFix" result="effect1_dropShadow_1393_1835"/>
<feBlend mode="normal" in="SourceGraphic" in2="effect1_dropShadow_1393_1835" result="shape"/>
</filter>
</defs>
</svg>
