<?xml version="1.0" encoding="UTF-8"?>
<svg id="LOGO_INFO" xmlns="http://www.w3.org/2000/svg" width="2.96in" height="1.77in" viewBox="0 0 213.21 127.46">
  <path d="M131.33,52.56l-6.13.94s-.28-.95-.28-.96c-2.98-9.21-12.01-15.9-22.69-15.9-11.8,0-21.59,8.17-23.43,18.88-.36,2.07,1.13,3.77,3.34,3.77,17.2-2.43,33.74-2.62,49.42,0,2.01,0,3.63-1.59,3.54-3.51-.09-1.84-1.36-3.21-3.77-3.21Z" style="fill: #470a68; stroke-width: 0px;"/>
  <path d="M124.51,65.44h-.03c-1.58.02-2.85,1.31-2.84,2.89v.11c0,9.18-8.48,16.65-18.9,16.65s-18.91-7.47-18.91-16.6c0-.03,0-.13,0-.16.02-1.58-1.25-2.89-2.84-2.91-1.58-.05-2.88,1.24-2.89,2.82,0,.04,0,.16,0,.2,0,12.34,11.05,22.38,24.64,22.38s24.64-10.04,24.64-22.38v-.17c-.02-1.57-1.3-2.84-2.87-2.84Z" style="fill: #470a68; stroke-width: 0px;"/>
  <ellipse cx="95.99" cy="68.37" rx="4.37" ry="6.82" style="fill: #470a68; stroke-width: 0px;"/>
  <ellipse cx="109.5" cy="68.37" rx="4.37" ry="6.82" style="fill: #470a68; stroke-width: 0px;"/>
</svg>