<?xml version="1.0" encoding="UTF-8"?>
<svg id="Layer_2" data-name="Layer 2" xmlns="http://www.w3.org/2000/svg" width="450.69" height="850.16" viewBox="0 0 450.69 850.16">
  <g id="Layer_1-2" data-name="Layer 1">
    <path d="M46.57,769.6c-25.41-78.41-45.82-206.94,45.22-233.28,31.24-8.54,70.4.04,87.58,29.31,12.98,21.13,10.04,49.13-4.72,68.67-18.36,25.46-53.21,42.24-59.59,75.57-5.35,24.06,4.59,51,20.94,69.42,46.59,51.44,131.29,51.74,194.4,38.58,27.79-5.79,68.81-17.59,82.48-45.63,20.34-41.72-35.04-78.22-54.5-107.84-15.49-23.58-27.48-49.47-34.9-76.71-14.9-54.64-10.23-112.72,11.16-164.99,12.7-33.43,32.1-64.02,50.46-93.61,29.09-46.38,42.06-102.87,40.46-158.95-1.14-39.6-13.53-79.82-41.82-108.56-30.63-31.12-79.57-45.31-121.88-31.03-49.98,16.88-61.37,69.7-100.67,98.9-24.41,19.16-58.65,19.72-83.61,1.02-11.56-8.29-20.6-19.47-29.48-30.5" style="fill: none; stroke: #fdda02; stroke-miterlimit: 10; stroke-width: 50px;"/>
  </g>
</svg>