<svg width="224" height="57" viewBox="0 0 224 57" fill="none" xmlns="http://www.w3.org/2000/svg">
<path d="M55.0643 16.4891L48.7082 17.4543C48.7082 17.4543 48.4185 16.473 48.4185 16.4569C45.329 6.93345 35.9799 0 24.9412 0C12.7278 0 2.59026 8.46171 0.691478 19.5295C0.321376 21.6691 1.86615 23.4225 4.15113 23.4225C21.9643 20.913 39.0694 20.7199 55.3056 23.4225C57.3814 23.4225 59.0549 21.7817 58.9745 19.7869C58.894 17.8886 57.5584 16.473 55.0804 16.473L55.0643 16.4891Z" fill="#FFDD00"/>
<path d="M48.0167 29.825H47.9845C46.3432 29.8411 45.0398 31.1763 45.0559 32.8171V32.9297C45.0559 42.4371 36.2861 50.1588 25.4888 50.1588C14.6914 50.1588 5.92163 42.421 5.92163 32.978C5.92163 32.9458 5.92163 32.8493 5.92163 32.8171C5.93772 31.1763 4.61823 29.825 2.993 29.8089C1.35168 29.7606 0.0160914 31.0958 0 32.7206C0 32.7689 0 32.8815 0 32.9297C0 45.7027 11.441 56.0949 25.5048 56.0949C39.5687 56.0949 51.0097 45.7027 51.0097 32.9297V32.7528C50.9936 31.128 49.658 29.825 48.0489 29.825H48.0167Z" fill="#FFDD00"/>
<path d="M18.4904 39.9275C20.9877 39.9275 23.0121 36.7657 23.0121 32.8654C23.0121 28.9651 20.9877 25.8032 18.4904 25.8032C15.9932 25.8032 13.9688 28.9651 13.9688 32.8654C13.9688 36.7657 15.9932 39.9275 18.4904 39.9275Z" fill="#FFDD00"/>
<path d="M32.4709 39.9275C34.9682 39.9275 36.9926 36.7657 36.9926 32.8654C36.9926 28.9651 34.9682 25.8032 32.4709 25.8032C29.9736 25.8032 27.9492 28.9651 27.9492 32.8654C27.9492 36.7657 29.9736 39.9275 32.4709 39.9275Z" fill="#FFDD00"/>
<path d="M88.3989 17.768H83.7324C83.1048 17.768 82.606 18.2667 82.606 18.8941V30.3963C82.606 31.5384 82.3002 32.4393 81.7049 33.0828C81.1095 33.7262 80.2888 34.048 79.275 34.048C78.5509 34.048 77.9395 33.9032 77.4245 33.5975C76.9096 33.2919 76.5234 32.8736 76.2821 32.3267C76.0246 31.7797 75.8959 31.1362 75.8959 30.3802V18.878C75.8959 18.2506 75.397 17.752 74.7695 17.752H70.103C69.4754 17.752 68.9766 18.2506 68.9766 18.878V30.4767C68.9766 32.3749 69.411 34.048 70.28 35.5119C71.1489 36.9758 72.3558 38.118 73.9166 38.9384C75.4614 39.7588 77.2475 40.1771 79.259 40.1771C81.2704 40.1771 83.0565 39.7588 84.5852 38.9384C86.1139 38.118 87.3207 36.9758 88.1897 35.5119C89.0586 34.048 89.4931 32.3589 89.4931 30.4445V18.8941C89.4931 18.2667 88.9942 17.768 88.3667 17.768H88.3989Z" fill="white" fill-opacity="0.94"/>
<path d="M109.394 18.4596C108.139 17.6874 106.707 17.3174 105.082 17.3174C103.457 17.3174 101.88 17.6713 100.544 18.3791C99.9487 18.7009 99.4177 19.0708 98.9349 19.5052V18.8939C98.9349 18.2665 98.4361 17.7678 97.8085 17.7678H93.142C92.5145 17.7678 92.0156 18.2665 92.0156 18.8939V38.5682C92.0156 39.1956 92.5145 39.6943 93.142 39.6943H97.8085C98.4361 39.6943 98.9349 39.1956 98.9349 38.5682V27.1947C98.9349 26.4387 99.0958 25.7791 99.4338 25.1839C99.7717 24.6047 100.222 24.1382 100.785 23.8326C101.349 23.5269 102.024 23.3661 102.765 23.3661C103.843 23.3661 104.744 23.72 105.452 24.4278C106.16 25.1356 106.514 26.0526 106.514 27.1947V38.5682C106.514 39.1956 107.013 39.6943 107.64 39.6943H112.307C112.934 39.6943 113.433 39.1956 113.433 38.5682V25.6665C113.433 24.1543 113.079 22.7708 112.355 21.5161C111.631 20.2452 110.649 19.2317 109.394 18.4756V18.4596Z" fill="white" fill-opacity="0.94"/>
<path d="M121.824 17.7686H117.173C116.551 17.7686 116.047 18.2727 116.047 18.8946V38.5689C116.047 39.1908 116.551 39.695 117.173 39.695H121.824C122.446 39.695 122.95 39.1908 122.95 38.5689V18.8946C122.95 18.2727 122.446 17.7686 121.824 17.7686Z" fill="white" fill-opacity="0.94"/>
<path d="M119.523 7.1665C118.445 7.1665 117.543 7.52041 116.835 8.24432C116.127 8.96823 115.773 9.8691 115.773 10.9469C115.773 12.0247 116.127 12.8934 116.835 13.6334C117.543 14.3734 118.429 14.7434 119.523 14.7434C120.617 14.7434 121.486 14.3734 122.178 13.6334C122.87 12.8934 123.208 12.0087 123.208 10.9469C123.208 9.88519 122.854 8.96823 122.178 8.24432C121.486 7.52041 120.601 7.1665 119.523 7.1665Z" fill="white" fill-opacity="0.94"/>
<path d="M141.709 32.8728C141.306 32.4706 140.679 32.4384 140.228 32.7763C139.89 33.0337 139.52 33.2589 139.134 33.4358C138.426 33.7576 137.621 33.9024 136.72 33.9024C135.755 33.9024 134.886 33.6771 134.097 33.2267C133.309 32.7763 132.713 32.165 132.263 31.3767C131.828 30.5885 131.603 29.6876 131.603 28.6741C131.603 27.6606 131.828 26.7598 132.263 25.9876C132.697 25.2154 133.309 24.6202 134.065 24.1859C134.838 23.7515 135.706 23.5263 136.704 23.5263C137.573 23.5263 138.345 23.655 139.021 23.9285C139.408 24.0733 139.762 24.2824 140.083 24.5237C140.534 24.8615 141.161 24.8293 141.548 24.4272L144.396 21.5798C144.862 21.1133 144.846 20.3572 144.348 19.9389C143.446 19.1668 142.465 18.5715 141.403 18.1211C139.971 17.542 138.41 17.2363 136.688 17.2363C134.403 17.2363 132.343 17.735 130.509 18.7324C128.675 19.7298 127.226 21.0811 126.148 22.8185C125.086 24.5559 124.539 26.5185 124.539 28.7063C124.539 30.8941 125.07 32.8245 126.116 34.578C127.162 36.3154 128.61 37.6828 130.445 38.6802C132.279 39.6775 134.323 40.1762 136.575 40.1762C138.345 40.1762 139.955 39.8706 141.403 39.2593C142.497 38.7928 143.511 38.1493 144.444 37.345C144.927 36.9267 144.943 36.1706 144.492 35.7202L141.676 32.8728H141.709Z" fill="white" fill-opacity="0.94"/>
<path d="M189.254 18.7978C187.644 17.8005 185.794 17.3018 183.718 17.3018C182.238 17.3018 180.886 17.6074 179.663 18.2026C179.052 18.5083 178.488 18.8622 177.99 19.2644V18.8783C177.99 18.2509 177.491 17.7522 176.863 17.7522H172.197C171.569 17.7522 171.07 18.2509 171.07 18.8783V47.8025C171.07 48.4299 171.569 48.9286 172.197 48.9286H176.767C177.394 48.9286 177.893 48.4299 177.893 47.8025V38.1825C178.424 38.6008 179.003 38.9708 179.647 39.2765C180.886 39.8556 182.238 40.1291 183.702 40.1291C185.778 40.1291 187.628 39.6304 189.237 38.633C190.847 37.6356 192.102 36.2843 193.035 34.5791C193.952 32.8578 194.419 30.9113 194.419 28.7074C194.419 26.5035 193.952 24.557 193.035 22.8357C192.118 21.1144 190.847 19.7631 189.237 18.7818L189.254 18.7978ZM186.792 31.3778C186.373 32.1661 185.794 32.7773 185.054 33.2278C184.314 33.6782 183.445 33.9034 182.463 33.9034C181.53 33.9034 180.693 33.6782 179.937 33.2278C179.18 32.7773 178.601 32.1661 178.199 31.3778C177.796 30.5895 177.587 29.7048 177.587 28.7235C177.587 27.7422 177.797 26.793 178.215 26.0209C178.633 25.2326 179.213 24.6374 179.953 24.187C180.693 23.7526 181.546 23.5274 182.495 23.5274C183.445 23.5274 184.314 23.7526 185.038 24.187C185.778 24.6213 186.357 25.2326 186.775 26.0209C187.194 26.8091 187.403 27.71 187.403 28.7235C187.403 29.7369 187.194 30.6056 186.775 31.3778H186.792Z" fill="white" fill-opacity="0.94"/>
<path d="M214.304 18.7978C212.695 17.8005 210.845 17.3018 208.769 17.3018C207.289 17.3018 205.937 17.6074 204.714 18.2026C204.102 18.5083 203.539 18.8622 203.04 19.2644V18.8783C203.04 18.2509 202.542 17.7522 201.914 17.7522H197.247C196.62 17.7522 196.121 18.2509 196.121 18.8783V47.8025C196.121 48.4299 196.62 48.9286 197.247 48.9286H201.817C202.445 48.9286 202.944 48.4299 202.944 47.8025V38.1825C203.475 38.6008 204.054 38.9708 204.698 39.2765C205.937 39.8556 207.289 40.1291 208.753 40.1291C210.829 40.1291 212.679 39.6304 214.288 38.633C215.897 37.6356 217.153 36.2843 218.086 34.5791C219.003 32.8578 219.47 30.9113 219.47 28.7074C219.47 26.5035 219.003 24.557 218.086 22.8357C217.169 21.1144 215.897 19.7631 214.288 18.7818L214.304 18.7978ZM211.858 31.3778C211.44 32.1661 210.861 32.7773 210.121 33.2278C209.38 33.6782 208.511 33.9034 207.53 33.9034C206.597 33.9034 205.76 33.6782 205.004 33.2278C204.247 32.7773 203.668 32.1661 203.266 31.3778C202.863 30.5895 202.654 29.7048 202.654 28.7235C202.654 27.7422 202.863 26.793 203.282 26.0209C203.7 25.2326 204.279 24.6374 205.02 24.187C205.76 23.7526 206.613 23.5274 207.562 23.5274C208.511 23.5274 209.38 23.7526 210.105 24.187C210.845 24.6213 211.424 25.2326 211.842 26.0209C212.261 26.8091 212.47 27.71 212.47 28.7235C212.47 29.7369 212.261 30.6056 211.842 31.3778H211.858Z" fill="white" fill-opacity="0.94"/>
<path d="M165.814 25.6343C165.427 22.6904 163.85 20.2452 161.34 18.717C157.253 16.2396 151.428 16.4165 147.276 19.0387C146.697 19.3926 146.568 20.1648 146.987 20.6957L148.853 23.0604C149.191 23.4948 149.803 23.6074 150.285 23.3339C152.747 21.9183 156.352 21.8056 158.637 23.1891C159.57 23.7522 160.182 24.5243 160.471 25.5217L158.009 25.3287C154.614 25.0713 151.251 26.1169 148.982 28.1439C146.568 30.2995 145.313 34.3695 147.373 37.4743C148.644 39.3564 150.961 40.4825 153.504 40.4825C153.89 40.4825 154.276 40.4504 154.678 40.4021C157.317 40.0482 159.94 38.6325 162.08 36.4126C162.467 36.0104 162.821 35.5921 163.159 35.1417C163.513 36.1873 163.706 37.3295 163.722 38.4556C163.722 39.0186 164.172 39.4852 164.735 39.5334L167.728 39.7908C168.388 39.8551 168.951 39.3565 168.951 38.6969C168.984 35.1578 167.825 31.6347 165.749 29.1091C165.942 27.9348 165.991 26.7604 165.846 25.6343H165.814ZM158.267 32.793C156.947 34.1604 155.402 35.0291 153.938 35.2221C152.989 35.3508 152.023 35.0773 151.685 34.5786C151.283 33.9834 151.653 32.7608 152.426 32.0691C153.504 31.1039 155.193 30.5408 156.947 30.5408C157.156 30.5408 157.366 30.5408 157.559 30.5569C158.283 30.6052 158.959 30.766 159.554 30.9913C159.2 31.6508 158.749 32.2621 158.251 32.793H158.267Z" fill="white" fill-opacity="0.94"/>
<path d="M223.483 14.7277C223.29 14.3899 223.033 14.1325 222.695 13.9395C222.357 13.7464 221.971 13.6499 221.536 13.6499C221.102 13.6499 220.732 13.7464 220.394 13.9395C220.072 14.1325 219.814 14.3899 219.621 14.7277C219.444 15.0656 219.348 15.4356 219.348 15.8538C219.348 16.2721 219.444 16.6421 219.637 16.9799C219.83 17.3177 220.088 17.5912 220.41 17.7842C220.732 17.9773 221.118 18.0738 221.552 18.0738C221.987 18.0738 222.373 17.9773 222.695 17.7842C223.016 17.5912 223.29 17.3177 223.467 16.9799C223.66 16.6421 223.757 16.2721 223.757 15.8377C223.757 15.4034 223.66 15.0656 223.467 14.7277H223.483ZM223.113 16.7708C222.968 17.0442 222.759 17.2534 222.485 17.4142C222.228 17.5751 221.906 17.6555 221.552 17.6555C221.198 17.6555 220.909 17.5751 220.635 17.4142C220.378 17.2534 220.168 17.0442 220.023 16.7708C219.879 16.4973 219.798 16.1916 219.798 15.8538C219.798 15.516 219.879 15.2103 220.023 14.9529C220.168 14.6795 220.378 14.4703 220.635 14.3095C220.892 14.1486 221.198 14.0682 221.552 14.0682C221.906 14.0682 222.212 14.1486 222.485 14.3095C222.743 14.4703 222.952 14.6795 223.113 14.9529C223.258 15.2264 223.338 15.516 223.338 15.8538C223.338 16.1916 223.258 16.4973 223.113 16.7708Z" fill="white" fill-opacity="0.94"/>
<path d="M222.244 15.8214C222.389 15.7088 222.453 15.5479 222.453 15.3549C222.453 15.1619 222.389 15.001 222.244 14.8884C222.099 14.7597 221.938 14.7114 221.713 14.7114H220.828V16.9153H221.311V16.0145H221.359L222.019 16.9153H222.598L221.89 15.9823C222.035 15.9501 222.148 15.9179 222.244 15.8375V15.8214ZM221.311 15.6445V15.0975H221.665C221.761 15.0975 221.826 15.1297 221.89 15.1779C221.938 15.2262 221.971 15.2906 221.971 15.3871C221.971 15.4675 221.938 15.5319 221.89 15.5801C221.826 15.6284 221.761 15.6606 221.665 15.6606H221.311V15.6445Z" fill="white" fill-opacity="0.94"/>
</svg>
