<svg width="158" height="39" viewBox="0 0 158 39" fill="none" xmlns="http://www.w3.org/2000/svg">
<path d="M38.8977 11.4644L34.4079 12.1355C34.4079 12.1355 34.2033 11.4532 34.2033 11.442C32.0209 4.82064 25.4169 0 17.6194 0C8.9921 0 1.83112 5.88319 0.489853 13.5783C0.22842 15.0659 1.31962 16.285 2.93368 16.285C15.5166 14.5402 27.5993 14.406 39.0682 16.285C40.5345 16.285 41.7167 15.1442 41.6598 13.7573C41.603 12.4375 40.6596 11.4532 38.9091 11.4532L38.8977 11.4644Z" fill="#FFDD00"/>
<path d="M33.9181 20.7352H33.8953C32.7359 20.7464 31.8152 21.6747 31.8266 22.8156V22.8939C31.8266 29.5041 25.6318 34.8728 18.0048 34.8728C10.3777 34.8728 4.18293 29.4929 4.18293 22.9274C4.18293 22.9051 4.18293 22.838 4.18293 22.8156C4.19429 21.6747 3.26223 20.7352 2.1142 20.724C0.954799 20.6905 0.0113666 21.6188 0 22.7485C0 22.782 0 22.8603 0 22.8939C0 31.7746 8.08168 39 18.0161 39C27.9506 39 36.0323 31.7746 36.0323 22.8939V22.7708C36.0209 21.6412 35.0775 20.7352 33.9408 20.7352H33.9181Z" fill="#FFDD00"/>
<path d="M13.0515 27.7616C14.8155 27.7616 16.2455 25.5633 16.2455 22.8515C16.2455 20.1397 14.8155 17.9414 13.0515 17.9414C11.2874 17.9414 9.85742 20.1397 9.85742 22.8515C9.85742 25.5633 11.2874 27.7616 13.0515 27.7616Z" fill="#FFDD00"/>
<path d="M22.9362 27.7616C24.7002 27.7616 26.1302 25.5633 26.1302 22.8515C26.1302 20.1397 24.7002 17.9414 22.9362 17.9414C21.1722 17.9414 19.7422 20.1397 19.7422 22.8515C19.7422 25.5633 21.1722 27.7616 22.9362 27.7616Z" fill="#FFDD00"/>
<path d="M62.3777 12.3535H59.0814C58.6381 12.3535 58.2858 12.7002 58.2858 13.1364V21.1335C58.2858 21.9276 58.0698 22.554 57.6492 23.0014C57.2287 23.4488 56.649 23.6725 55.9329 23.6725C55.4214 23.6725 54.9894 23.5718 54.6257 23.3593C54.262 23.1468 53.9892 22.856 53.8187 22.4757C53.6368 22.0954 53.5459 21.648 53.5459 21.1223V13.1252C53.5459 12.689 53.1935 12.3423 52.7502 12.3423H49.4539C49.0106 12.3423 48.6582 12.689 48.6582 13.1252V21.1894C48.6582 22.5092 48.9651 23.6725 49.5789 24.6903C50.1927 25.7081 51.0452 26.5022 52.1478 27.0726C53.239 27.6431 54.5007 27.9339 55.9215 27.9339C57.3423 27.9339 58.604 27.6431 59.6839 27.0726C60.7637 26.5022 61.6162 25.7081 62.23 24.6903C62.8438 23.6725 63.1507 22.4981 63.1507 21.1671V13.1364C63.1507 12.7002 62.7983 12.3535 62.355 12.3535H62.3777Z" fill="white"/>
<path d="M77.1998 12.8342C76.3132 12.2973 75.3016 12.04 74.1535 12.04C73.0055 12.04 71.8916 12.2861 70.9482 12.7782C70.5276 13.0019 70.1525 13.2592 69.8115 13.5612V13.1361C69.8115 12.6999 69.4591 12.3532 69.0158 12.3532H65.7195C65.2762 12.3532 64.9238 12.6999 64.9238 13.1361V26.8151C64.9238 27.2513 65.2762 27.5981 65.7195 27.5981H69.0158C69.4591 27.5981 69.8115 27.2513 69.8115 26.8151V18.9075C69.8115 18.3818 69.9252 17.9232 70.1639 17.5094C70.4026 17.1067 70.7208 16.7824 71.1187 16.5699C71.5165 16.3574 71.9939 16.2455 72.5167 16.2455C73.2783 16.2455 73.9148 16.4916 74.415 16.9837C74.9151 17.4758 75.1652 18.1134 75.1652 18.9075V26.8151C75.1652 27.2513 75.5175 27.5981 75.9608 27.5981H79.2572C79.7005 27.5981 80.0528 27.2513 80.0528 26.8151V17.8449C80.0528 16.7936 79.8028 15.8317 79.2913 14.9593C78.7798 14.0757 78.0864 13.371 77.1998 12.8453V12.8342Z" fill="white"/>
<path d="M85.9888 12.3506H82.7039C82.2644 12.3506 81.9082 12.7011 81.9082 13.1335V26.8125C81.9082 27.2449 82.2644 27.5954 82.7039 27.5954H85.9888C86.4283 27.5954 86.7845 27.2449 86.7845 26.8125V13.1335C86.7845 12.7011 86.4283 12.3506 85.9888 12.3506Z" fill="white"/>
<path d="M84.3594 4.98193C83.5978 4.98193 82.9613 5.228 82.4611 5.73131C81.961 6.23463 81.7109 6.86098 81.7109 7.61036C81.7109 8.35974 81.961 8.96372 82.4611 9.47822C82.9613 9.99272 83.5864 10.25 84.3594 10.25C85.1323 10.25 85.7461 9.99272 86.2349 9.47822C86.7236 8.96372 86.9623 8.34855 86.9623 7.61036C86.9623 6.87216 86.7123 6.23463 86.2349 5.73131C85.7461 5.228 85.1209 4.98193 84.3594 4.98193Z" fill="white"/>
<path d="M100.044 22.8545C99.7601 22.5749 99.3168 22.5525 98.9985 22.7874C98.7598 22.9664 98.4984 23.123 98.2256 23.246C97.7254 23.4697 97.1571 23.5703 96.5206 23.5703C95.8386 23.5703 95.2248 23.4138 94.6678 23.1006C94.1108 22.7874 93.6903 22.3624 93.372 21.8143C93.0651 21.2663 92.906 20.6399 92.906 19.9353C92.906 19.2307 93.0651 18.6043 93.372 18.0674C93.6789 17.5306 94.1108 17.1167 94.6451 16.8147C95.1907 16.5128 95.8045 16.3562 96.5092 16.3562C97.123 16.3562 97.6686 16.4456 98.146 16.6358C98.4188 16.7364 98.6689 16.8818 98.8962 17.0496C99.2145 17.2845 99.6578 17.2621 99.9306 16.9825L101.942 15.0028C102.272 14.6784 102.261 14.1528 101.908 13.862C101.272 13.3251 100.578 12.9113 99.8283 12.5981C98.8166 12.1954 97.7141 11.9829 96.4978 11.9829C94.8838 11.9829 93.4288 12.3296 92.133 13.0231C90.8372 13.7166 89.8142 14.6561 89.0527 15.864C88.3025 17.072 87.916 18.4365 87.916 19.9577C87.916 21.4788 88.2911 22.821 89.0299 24.0401C89.7688 25.2481 90.7918 26.1988 92.0876 26.8922C93.3834 27.5857 94.8269 27.9324 96.4183 27.9324C97.6686 27.9324 98.8053 27.7199 99.8283 27.2949C100.601 26.9705 101.317 26.5231 101.977 25.9639C102.318 25.6731 102.329 25.1474 102.011 24.8342L100.021 22.8545H100.044Z" fill="white"/>
<path d="M133.616 13.069C132.479 12.3755 131.172 12.0288 129.706 12.0288C128.66 12.0288 127.705 12.2413 126.841 12.6552C126.409 12.8677 126.012 13.1137 125.659 13.3934V13.1249C125.659 12.6887 125.307 12.342 124.863 12.342H121.567C121.124 12.342 120.771 12.6887 120.771 13.1249V33.2352C120.771 33.6714 121.124 34.0181 121.567 34.0181H124.795C125.239 34.0181 125.591 33.6714 125.591 33.2352V26.5467C125.966 26.8375 126.375 27.0947 126.83 27.3072C127.705 27.7099 128.66 27.9 129.694 27.9C131.161 27.9 132.468 27.5533 133.604 26.8598C134.741 26.1664 135.628 25.2269 136.287 24.0413C136.935 22.8445 137.264 21.4911 137.264 19.9588C137.264 18.4265 136.935 17.0731 136.287 15.8764C135.639 14.6796 134.741 13.7401 133.604 13.0578L133.616 13.069ZM131.877 21.8155C131.581 22.3636 131.172 22.7886 130.649 23.1017C130.126 23.4149 129.512 23.5715 128.819 23.5715C128.16 23.5715 127.569 23.4149 127.034 23.1017C126.5 22.7886 126.091 22.3636 125.807 21.8155C125.523 21.2674 125.375 20.6523 125.375 19.97C125.375 19.2877 125.523 18.6278 125.818 18.091C126.114 17.5429 126.523 17.1291 127.046 16.8159C127.569 16.5139 128.171 16.3573 128.842 16.3573C129.512 16.3573 130.126 16.5139 130.638 16.8159C131.161 17.1179 131.57 17.5429 131.865 18.091C132.161 18.639 132.309 19.2654 132.309 19.97C132.309 20.6746 132.161 21.2786 131.865 21.8155H131.877Z" fill="white"/>
<path d="M151.317 13.069C150.18 12.3755 148.873 12.0288 147.407 12.0288C146.361 12.0288 145.406 12.2413 144.542 12.6552C144.111 12.8677 143.713 13.1137 143.36 13.3934V13.1249C143.36 12.6887 143.008 12.342 142.565 12.342H139.268C138.825 12.342 138.473 12.6887 138.473 13.1249V33.2352C138.473 33.6714 138.825 34.0181 139.268 34.0181H142.496C142.94 34.0181 143.292 33.6714 143.292 33.2352V26.5467C143.667 26.8375 144.076 27.0947 144.531 27.3072C145.406 27.7099 146.361 27.9 147.395 27.9C148.862 27.9 150.169 27.5533 151.306 26.8598C152.442 26.1664 153.329 25.2269 153.988 24.0413C154.636 22.8445 154.966 21.4911 154.966 19.9588C154.966 18.4265 154.636 17.0731 153.988 15.8764C153.34 14.6796 152.442 13.7401 151.306 13.0578L151.317 13.069ZM149.589 21.8155C149.294 22.3636 148.884 22.7886 148.362 23.1017C147.839 23.4149 147.225 23.5715 146.532 23.5715C145.872 23.5715 145.281 23.4149 144.747 23.1017C144.213 22.7886 143.804 22.3636 143.519 21.8155C143.235 21.2674 143.088 20.6523 143.088 19.97C143.088 19.2877 143.235 18.6278 143.531 18.091C143.826 17.5429 144.236 17.1291 144.758 16.8159C145.281 16.5139 145.884 16.3573 146.554 16.3573C147.225 16.3573 147.839 16.5139 148.35 16.8159C148.873 17.1179 149.282 17.5429 149.578 18.091C149.873 18.639 150.021 19.2654 150.021 19.97C150.021 20.6746 149.873 21.2786 149.578 21.8155H149.589Z" fill="white"/>
<path d="M117.061 17.8209C116.789 15.7741 115.675 14.074 113.901 13.0114C111.014 11.289 106.9 11.412 103.967 13.2351C103.558 13.4812 103.467 14.0181 103.762 14.3872L105.081 16.0313C105.32 16.3333 105.752 16.4116 106.093 16.2215C107.832 15.2372 110.378 15.1589 111.992 16.1208C112.651 16.5123 113.083 17.0492 113.288 17.7426L111.549 17.6084C109.15 17.4294 106.775 18.1564 105.172 19.5657C103.467 21.0645 102.58 23.8942 104.035 26.0529C104.933 27.3615 106.57 28.1445 108.366 28.1445C108.639 28.1445 108.911 28.1221 109.196 28.0885C111.06 27.8425 112.913 26.8582 114.424 25.3147C114.697 25.0351 114.947 24.7443 115.186 24.4311C115.436 25.1581 115.572 25.9522 115.584 26.7352C115.584 27.1266 115.902 27.451 116.3 27.4846L118.414 27.6635C118.88 27.7083 119.278 27.3615 119.278 26.9029C119.301 24.4423 118.482 21.9928 117.016 20.2368C117.152 19.4203 117.186 18.6038 117.084 17.8209H117.061ZM111.73 22.7981C110.798 23.7488 109.707 24.3528 108.673 24.487C108.002 24.5765 107.32 24.3864 107.081 24.0396C106.797 23.6258 107.059 22.7758 107.604 22.2948C108.366 21.6237 109.559 21.2323 110.798 21.2323C110.946 21.2323 111.094 21.2323 111.23 21.2434C111.742 21.277 112.219 21.3888 112.64 21.5454C112.39 22.004 112.071 22.429 111.719 22.7981H111.73Z" fill="white"/>
<path d="M157.806 10.2391C157.67 10.0042 157.488 9.82529 157.249 9.69107C157.01 9.55686 156.738 9.48975 156.431 9.48975C156.124 9.48975 155.862 9.55686 155.624 9.69107C155.396 9.82529 155.214 10.0042 155.078 10.2391C154.953 10.474 154.885 10.7313 154.885 11.0221C154.885 11.3129 154.953 11.5701 155.089 11.805C155.226 12.0399 155.408 12.23 155.635 12.3642C155.862 12.4985 156.135 12.5656 156.442 12.5656C156.749 12.5656 157.022 12.4985 157.249 12.3642C157.476 12.23 157.67 12.0399 157.795 11.805C157.931 11.5701 157.999 11.3129 157.999 11.0109C157.999 10.7089 157.931 10.474 157.795 10.2391H157.806ZM157.545 11.6596C157.442 11.8497 157.294 11.9951 157.101 12.107C156.919 12.2188 156.692 12.2748 156.442 12.2748C156.192 12.2748 155.987 12.2188 155.794 12.107C155.612 11.9951 155.464 11.8497 155.362 11.6596C155.26 11.4695 155.203 11.2569 155.203 11.0221C155.203 10.7872 155.26 10.5747 155.362 10.3957C155.464 10.2056 155.612 10.0602 155.794 9.94832C155.976 9.83647 156.192 9.78055 156.442 9.78055C156.692 9.78055 156.908 9.83647 157.101 9.94832C157.283 10.0602 157.431 10.2056 157.545 10.3957C157.647 10.5859 157.704 10.7872 157.704 11.0221C157.704 11.2569 157.647 11.4695 157.545 11.6596Z" fill="white"/>
<path d="M156.92 11.0003C157.022 10.922 157.068 10.8101 157.068 10.6759C157.068 10.5417 157.022 10.4298 156.92 10.3515C156.818 10.2621 156.704 10.2285 156.545 10.2285H155.92V11.7608H156.261V11.1345H156.295L156.761 11.7608H157.17L156.67 11.1121C156.772 11.0897 156.852 11.0674 156.92 11.0115V11.0003ZM156.261 10.8772V10.497H156.511C156.579 10.497 156.625 10.5193 156.67 10.5529C156.704 10.5864 156.727 10.6312 156.727 10.6983C156.727 10.7542 156.704 10.7989 156.67 10.8325C156.625 10.866 156.579 10.8884 156.511 10.8884H156.261V10.8772Z" fill="white"/>
</svg>
